<?xml version="1.0" encoding="UTF-8"?>
<svg width="475px" height="475px" viewBox="0 0 475 475" version="1.1" xmlns="http://www.w3.org/2000/svg" xmlns:xlink="http://www.w3.org/1999/xlink">
    <!-- Generator: Sketch 55.2 (78181) - https://sketchapp.com -->
    <title>noun_Zoom_2137711</title>
    <desc>Created with Sketch.</desc>
    <g id="Page-1" stroke="none" stroke-width="1" fill="none" fill-rule="evenodd">
        <g id="Desktop" transform="translate(-284.000000, -362.000000)" fill="#000000" fill-rule="nonzero">
            <g id="noun_Zoom_2137711" transform="translate(284.000000, 362.000000)">
                <g id="Group">
                    <path d="M172.9,345.6 C126.8,345.6 83.4,327.6 50.8,295 C18.2,262.4 0.2,219 0.2,172.9 C0.2,126.8 18.2,83.4 50.8,50.9 C83.4,18.3 126.8,0.3 172.9,0.3 C219,0.3 262.4,18.3 294.9,50.9 C327.5,83.5 345.5,126.8 345.5,172.9 C345.5,219 327.5,262.4 294.9,295 C262.4,327.6 219,345.6 172.9,345.6 Z M172.9,14.7 C130.6,14.7 90.9,31.2 61,61.1 C31.1,91 14.6,130.7 14.6,173 C14.6,215.3 31.1,255 61,284.9 C90.9,314.8 130.6,331.3 172.9,331.3 C215.2,331.3 254.9,314.8 284.8,284.9 C314.7,255 331.2,215.3 331.2,173 C331.2,130.7 314.7,91 284.8,61.1 C254.9,31.2 215.2,14.7 172.9,14.7 Z" id="Shape"></path>
                    <path d="M467.5,474.6 C465.7,474.6 463.8,473.9 462.4,472.5 L284.8,295 C282,292.2 282,287.6 284.8,284.8 C287.6,282 292.2,282 295,284.8 L472.6,462.3 C475.4,465.1 475.4,469.7 472.6,472.5 C471.2,473.9 469.3,474.6 467.5,474.6 Z" id="Path"></path>
                    <path d="M172.9,238.4 C168.9,238.4 165.7,235.2 165.7,231.2 L165.7,114.7 C165.7,110.7 168.9,107.5 172.9,107.5 C176.9,107.5 180.1,110.7 180.1,114.7 L180.1,231.2 C180.1,235.2 176.9,238.4 172.9,238.4 Z" id="Path"></path>
                    <path d="M231.2,180.1 L114.7,180.1 C110.7,180.1 107.5,176.9 107.5,172.9 C107.5,168.9 110.7,165.7 114.7,165.7 L231.2,165.7 C235.2,165.7 238.4,168.9 238.4,172.9 C238.4,176.9 235.1,180.1 231.2,180.1 Z" id="Path"></path>
                </g>
            </g>
        </g>
    </g>
</svg>