<?xml version="1.0" encoding="utf-8"?>
<!-- Generator: Adobe Illustrator 24.2.3, SVG Export Plug-In . SVG Version: 6.00 Build 0)  -->
<svg version="1.1" id="Layer_1" xmlns="http://www.w3.org/2000/svg" xmlns:xlink="http://www.w3.org/1999/xlink" x="0px" y="0px"
	 viewBox="0 0 475 475" style="enable-background:new 0 0 475 475;" xml:space="preserve">
<style type="text/css">
	.st0{fill:#231F20;}
</style>
<desc>Created with Sketch.</desc>
<desc>Created with Sketch.</desc>
<g>
	<polygon class="st0" points="407.2,384.1 407.2,384.1 407.2,384.1 	"/>
	<path class="st0" d="M407.2,384.1L296.3,273.3c17.8-22.2,27.6-49.9,27.6-78.5c0-33.4-13-64.9-36.7-88.6
		c-23.6-23.7-55.1-36.8-88.6-36.8c-33.5,0-65,13-88.7,36.7c-23.7,23.6-36.8,55.1-36.8,88.6c0,33.5,13.1,65,36.8,88.7
		c23.7,23.7,55.2,36.8,88.7,36.8c28.6,0,56.4-9.8,78.5-27.7L388,403.4c2.5,2.5,6,4,9.6,4s7.1-1.5,9.6-4c2.6-2.6,4-6,4-9.6
		C411.2,390.1,409.8,386.7,407.2,384.1z M296.8,194.8c0,25.8-10,50.2-28.1,68.7c-0.2,0.2-0.5,0.4-0.7,0.7c-0.2,0.2-0.5,0.5-0.7,0.7
		c-18.5,18.1-42.9,28.1-68.7,28.1c-26.2,0-50.9-10.2-69.4-28.8c-18.6-18.6-28.8-43.2-28.8-69.4c0-26.2,10.2-50.9,28.8-69.4
		s43.2-28.8,69.4-28.8s50.9,10.2,69.4,28.8S296.8,168.6,296.8,194.8z"/>
	<path class="st0" d="M237.9,181.2h-25.8v-25.7c0-7.5-6.1-13.6-13.6-13.6s-13.6,6.1-13.6,13.6v25.7h-25.7c-7.5,0-13.6,6.1-13.6,13.6
		s6.1,13.6,13.6,13.6h25.7v25.8c0,7.5,6.1,13.6,13.6,13.6s13.6-6.1,13.6-13.6v-25.8h25.8c7.5,0,13.6-6.1,13.6-13.6
		S245.4,181.2,237.9,181.2z"/>
</g>
</svg>
